<?xml version="1.0" ?><svg id="Layer_1" style="enable-background:new 0 0 120 120;" version="1.1" viewBox="0 0 120 120" xml:space="preserve" xmlns="http://www.w3.org/2000/svg" xmlns:xlink="http://www.w3.org/1999/xlink"><style type="text/css">
	.st0{fill:#004C99;}
	.st1{fill:#004C99;}
	.st2{fill:#FFC91D;}
	.st3{fill:#EDB61D;}
</style><g><path class="st0" d="M85.6,76.2V60.4H34.4v15.8c0,2.7,12.8,9.2,25.6,9.2S85.6,78.9,85.6,76.2z"/><path class="st1" d="M106.6,53.4L60.7,68.6c-0.5,0.2-1,0.2-1.4,0L13.4,53.4c-2.1-0.7-2.1-3.7,0-4.3l45.8-14.4   c0.4-0.1,0.9-0.1,1.4,0l45.8,14.4C108.6,49.8,108.7,52.7,106.6,53.4z"/><g><path class="st2" d="M24.4,70c-0.7,0-1.3-0.6-1.3-1.3V57.1c0-0.6,0.5-1.2,1.1-1.3l35.6-5.4c0.7-0.1,1.3,0.4,1.4,1.1    c0.1,0.7-0.4,1.3-1.1,1.4l-34.5,5.2v10.5C25.7,69.4,25.1,70,24.4,70z"/></g><path class="st2" d="M22.2,79.5h4.4c0.9,0,1.6-0.9,1.3-1.7l-2-7h-3l-2,7C20.7,78.6,21.3,79.5,22.2,79.5z"/><ellipse class="st3" cx="60" cy="51.7" rx="4.4" ry="2.4"/><circle class="st3" cx="24.5" cy="69.9" r="3.1"/></g></svg>