<?xml version="1.0" ?><svg enable-background="new 0 0 48 48" id="Layer_1" version="1.1" viewBox="0 0 48 48" xml:space="preserve" xmlns="http://www.w3.org/2000/svg" xmlns:xlink="http://www.w3.org/1999/xlink"><g><g><path d="M42,11l-0.0800171,0.5L41.8400269,12l-0.3099976,2L37,43c0,1.6499634-1.3499756,3-3,3H8    c-1.6500244,0-3-1.3500366-3-3l5-37c0-2.210022,1.789978-4,4-4h19c0.2700195,0,0.5200195,0.1099854,0.710022,0.289978l8,8    C41.8900146,10.4799805,42,10.7299805,42,11z" fill="#004C99"/><path d="M42,11.5799561V12h-0.1599731l-0.3099976,2H34c-0.5499878,0-1-0.4500122-1-1V4h1    c0.2700195,0,0.5200195,0.1099854,0.710022,0.289978L41.9199829,11.5L42,11.5799561z" fill="#1E81CE"/><path d="M42,11v1h-9c-0.5499878,0-1-0.4500122-1-1V2h1c0.2700195,0,0.5200195,0.1099854,0.710022,0.289978l8,8    C41.8900146,10.4799805,42,10.7299805,42,11z" fill="#EBEBEB"/></g><g><g><g><g><path d="M14,35c-0.2597656,0-0.5205078-0.1005859-0.7099609-0.2900391       C13.109375,34.5195313,13,34.2597656,13,34s0.109375-0.5205078,0.2900391-0.7099609       c0.3701172-0.3701172,1.0400391-0.3701172,1.4199219,0C14.8896484,33.4794922,15,33.7402344,15,34       s-0.1103516,0.5195313-0.2900391,0.7099609C14.5195313,34.8994141,14.2597656,35,14,35z" fill="#1E81CE"/></g><g><path d="M30,35H18c-0.5527344,0-1-0.4472656-1-1s0.4472656-1,1-1h12c0.5527344,0,1,0.4472656,1,1       S30.5527344,35,30,35z" fill="#1E81CE"/></g></g><g><g><path d="M14,30c-0.2705078,0-0.5205078-0.1103516-0.7099609-0.2998047       C13.109375,29.5195313,13,29.2597656,13,29s0.109375-0.5205078,0.2900391-0.7099609       c0.3701172-0.3603516,1.0400391-0.3701172,1.4199219,0C14.8896484,28.4794922,15,28.7402344,15,29       s-0.1103516,0.5195313-0.2900391,0.7099609C14.5195313,29.8896484,14.2695313,30,14,30z" fill="#1E81CE"/></g><g><path d="M30,30H18c-0.5527344,0-1-0.4472656-1-1s0.4472656-1,1-1h12c0.5527344,0,1,0.4472656,1,1       S30.5527344,30,30,30z" fill="#1E81CE"/></g></g><g><g><path d="M14,25c-0.2597656,0-0.5205078-0.1103516-0.7099609-0.2900391       C13.109375,24.5200195,13,24.2597656,13,24c0-0.2602539,0.109375-0.5200195,0.2900391-0.7099609       c0.3798828-0.3701172,1.0400391-0.3701172,1.4199219,0C14.8896484,23.4799805,15,23.7397461,15,24       c0,0.2700195-0.1103516,0.5200195-0.2900391,0.7099609C14.5195313,24.8896484,14.2597656,25,14,25z" fill="#1E81CE"/></g><g><path d="M30,25H18c-0.5527344,0-1-0.4477539-1-1s0.4472656-1,1-1h12c0.5527344,0,1,0.4477539,1,1       S30.5527344,25,30,25z" fill="#1E81CE"/></g></g><g><g><path d="M14,20c-0.2597656,0-0.5205078-0.1103516-0.7099609-0.2900391       C13.109375,19.5200195,13,19.2597656,13,19c0-0.2602539,0.109375-0.5200195,0.2900391-0.7099609       c0.3701172-0.3701172,1.0400391-0.3701172,1.4199219,0C14.8896484,18.4799805,15,18.7397461,15,19       c0,0.2597656-0.1103516,0.5200195-0.2900391,0.7099609C14.5195313,19.8999023,14.2597656,20,14,20z" fill="#1E81CE"/></g><g><path d="M30,20H18c-0.5527344,0-1-0.4477539-1-1s0.4472656-1,1-1h12c0.5527344,0,1,0.4477539,1,1       S30.5527344,20,30,20z" fill="#1E81CE"/></g></g></g><g><g><g><path d="M15,34c-0.2597656,0-0.5205078-0.1005859-0.7099609-0.2900391       C14.109375,33.5195313,14,33.2597656,14,33s0.109375-0.5205078,0.2900391-0.7099609       c0.3701172-0.3701172,1.0400391-0.3701172,1.4199219,0C15.8896484,32.4794922,16,32.7402344,16,33       s-0.1103516,0.5195313-0.2900391,0.7099609C15.5195313,33.8994141,15.2597656,34,15,34z" fill="#EBEBEB"/></g><g><path d="M31,34H19c-0.5527344,0-1-0.4472656-1-1s0.4472656-1,1-1h12c0.5527344,0,1,0.4472656,1,1       S31.5527344,34,31,34z" fill="#EBEBEB"/></g></g><g><g><path d="M15,29c-0.2705078,0-0.5205078-0.1103516-0.7099609-0.2998047       C14.109375,28.5195313,14,28.2597656,14,28s0.109375-0.5205078,0.2900391-0.7099609       c0.3701172-0.3603516,1.0400391-0.3701172,1.4199219,0C15.8896484,27.4794922,16,27.7402344,16,28       s-0.1103516,0.5195313-0.2900391,0.7099609C15.5195313,28.8896484,15.2695313,29,15,29z" fill="#EBEBEB"/></g><g><path d="M31,29H19c-0.5527344,0-1-0.4472656-1-1s0.4472656-1,1-1h12c0.5527344,0,1,0.4472656,1,1       S31.5527344,29,31,29z" fill="#EBEBEB"/></g></g><g><g><path d="M15,24c-0.2597656,0-0.5205078-0.1103516-0.7099609-0.2900391       C14.109375,23.5200195,14,23.2597656,14,23c0-0.2602539,0.109375-0.5200195,0.2900391-0.7099609       c0.3798828-0.3701172,1.0400391-0.3701172,1.4199219,0C15.8896484,22.4799805,16,22.7397461,16,23       c0,0.2700195-0.1103516,0.5200195-0.2900391,0.7099609C15.5195313,23.8896484,15.2597656,24,15,24z" fill="#EBEBEB"/></g><g><path d="M31,24H19c-0.5527344,0-1-0.4477539-1-1s0.4472656-1,1-1h12c0.5527344,0,1,0.4477539,1,1       S31.5527344,24,31,24z" fill="#EBEBEB"/></g></g><g><g><path d="M15,19c-0.2597656,0-0.5205078-0.1103516-0.7099609-0.2900391       C14.109375,18.5200195,14,18.2597656,14,18c0-0.2602539,0.109375-0.5200195,0.2900391-0.7099609       c0.3701172-0.3701172,1.0400391-0.3701172,1.4199219,0C15.8896484,17.4799805,16,17.7397461,16,18       c0,0.2597656-0.1103516,0.5200195-0.2900391,0.7099609C15.5195313,18.8999023,15.2597656,19,15,19z" fill="#EBEBEB"/></g><g><path d="M31,19H19c-0.5527344,0-1-0.4477539-1-1s0.4472656-1,1-1h12c0.5527344,0,1,0.4477539,1,1       S31.5527344,19,31,19z" fill="#EBEBEB"/></g></g></g></g></g></svg>