<?xml version="1.0" ?><svg xmlns="http://www.w3.org/2000/svg" xmlns:xlink="http://www.w3.org/1999/xlink" version="1.1" viewBox="0 0 512 512" style="enable-background:new 0 0 512 512;" xml:space="preserve"><g id="_x31_3_x2C__Gambler_x2C__Target_x2C__Gambler_x2C__Dart_Board_x2C__Gambling_x2C__Targeting_x2C__Sports_x2C__Arrow"><g><circle style="fill:#FFFFFF;" cx="256" cy="256" r="50"/><path style="fill:#FFFFFF;" d="M366,256l38.2-19.933L436,256c0,99.41-80.59,180-180,180l-10.2-38.333L256,366    C316.75,366,366,316.75,366,256z"/><path style="fill:#FFFFFF;" d="M256,76l12.733,36.6L256,146c-60.75,0-110,49.25-110,110l-40.467,17.933L76,256    C76,156.59,156.59,76,256,76z"/><path style="fill:#9DCAFC;" d="M436,256h-70c0-60.75-49.25-110-110-110V76C355.41,76,436,156.59,436,256z"/><path style="fill:#9DCAFC;" d="M256,366v70c-99.41,0-180-80.59-180-180h70C146,316.75,195.25,366,256,366z"/><g><path style="fill:#004C99;" d="M11,91c5.523,0,10-4.477,10-10V21h60c5.523,0,10-4.477,10-10S86.523,1,81,1H11     C5.477,1,1,5.477,1,11v70C1,86.523,5.477,91,11,91z"/><path style="fill:#004C99;" d="M501,421c-5.522,0-10,4.477-10,10v60h-60c-5.522,0-10,4.477-10,10s4.478,10,10,10h70     c5.522,0,10-4.477,10-10v-70C511,425.477,506.522,421,501,421z"/><path style="fill:#004C99;" d="M81,491H21v-60c0-5.523-4.477-10-10-10s-10,4.477-10,10v70c0,5.523,4.477,10,10,10h70     c5.523,0,10-4.477,10-10S86.523,491,81,491z"/><path style="fill:#004C99;" d="M501,1h-70c-5.522,0-10,4.477-10,10s4.478,10,10,10h60v60c0,5.523,4.478,10,10,10s10-4.477,10-10     V11C511,5.477,506.522,1,501,1z"/><path style="fill:#004C99;" d="M256,196c-33.084,0-60,26.916-60,60s26.916,60,60,60s60-26.916,60-60S289.084,196,256,196z      M256,296c-22.056,0-40-17.944-40-40s17.944-40,40-40c22.056,0,40,17.944,40,40S278.056,296,256,296z"/><path style="fill:#004C99;" d="M501,246h-55.263C440.692,149.176,362.824,71.308,266,66.263V11c0-5.523-4.478-10-10-10     c-5.523,0-10,4.477-10,10v55.263C149.176,71.308,71.308,149.176,66.263,246H11c-5.523,0-10,4.477-10,10s4.477,10,10,10h55.263     C71.308,362.824,149.176,440.692,246,445.737V501c0,5.523,4.477,10,10,10c5.522,0,10-4.477,10-10v-55.263     c96.824-5.045,174.692-82.913,179.737-179.737H501c5.522,0,10-4.477,10-10S506.522,246,501,246z M425.698,246H375.58     c-4.825-58.208-51.372-104.754-109.58-109.58V86.302C351.791,91.304,420.696,160.209,425.698,246z M256,356     c-55.14,0-100-44.86-100-100s44.86-100,100-100c55.141,0,100,44.86,100,100S311.141,356,256,356z M246,86.302v50.118     c-58.208,4.825-104.754,51.372-109.58,109.58H86.302C91.304,160.209,160.209,91.304,246,86.302z M86.302,266h50.118     c4.825,58.208,51.372,104.754,109.58,109.58v50.118C160.209,420.696,91.304,351.791,86.302,266z M266,425.698V375.58     c58.208-4.825,104.754-51.372,109.58-109.58h50.118C420.696,351.791,351.791,420.696,266,425.698z"/><circle style="fill:#004C99;" cx="256" cy="255.917" r="9.789"/></g></g></g><g id="Layer_1"/></svg>