<?xml version="1.0" ?><svg xmlns="http://www.w3.org/2000/svg" xmlns:xlink="http://www.w3.org/1999/xlink" version="1.1" id="Icons" viewBox="0 0 32 32" style="enable-background:new 0 0 32 32;" xml:space="preserve"><style type="text/css">
	.st0{fill:#004C99;}
</style><path class="st0" d="M6,13h2L7.99,29H6c-1.65,0-3-1.35-3-3V16C3,14.35,4.35,13,6,13z"/><path class="st0" d="M29,14.69c0,0.28-0.03,0.56-0.09,0.83l-2.22,9.6C26.16,27.41,24.16,29,21.82,29H9.99L10,13.16  c0-0.72,0.2-1.43,0.57-2.06l3.81-6.35c1-1.66,3.27-2.35,5.11-1.14C20.46,4.25,21,5.34,21,6.5c0,0.46-0.08,0.9-0.25,1.33L19.48,11  h5.83C27.34,11,29,12.66,29,14.69z"/></svg>