<?xml version="1.0" ?><!DOCTYPE svg  PUBLIC '-//W3C//DTD SVG 1.1//EN'  'http://www.w3.org/Graphics/SVG/1.1/DTD/svg11.dtd'><svg height="100%" style="fill-rule:evenodd;clip-rule:evenodd;stroke-linejoin:round;stroke-miterlimit:2;" version="1.1" viewBox="0 0 64 64" width="100%" xml:space="preserve" xmlns="http://www.w3.org/2000/svg" xmlns:serif="http://www.serif.com/" xmlns:xlink="http://www.w3.org/1999/xlink"><g id="ICON"><path d="M9.507,9.507c-0.002,0.019 -0.004,0.039 -0.005,0.058c-0.001,-0.022 -0.002,-0.043 -0.002,-0.065l0,14c-0,0.552 0.448,1 1,1c0.552,0 1,-0.448 1,-1l0,-9.31c1.209,1.16 2.821,1.81 4.5,1.81c7.496,0 20,0 20,0c0.552,-0 1,-0.448 1,-1c-0,-0.552 -0.448,-1 -1,-1c-0,0 -12.504,0 -20,0c-1.193,0 -2.338,-0.474 -3.182,-1.318c-0.844,-0.844 -1.318,-1.989 -1.318,-3.182c0,0.022 -0.001,0.043 -0.002,0.065c-0.001,-0.019 -0.003,-0.039 -0.005,-0.058l0.007,-0.007c0,-2.485 2.015,-4.5 4.5,-4.5l32.5,0l0,3.5l-23.926,0c-0.552,-0 -1,0.448 -1,1c0,0.552 0.448,1 1,1l23.926,0l0,3.5l-8.5,0c-0.552,-0 -1,0.448 -1,1c-0,0.552 0.448,1 1,1l11.5,0c0.552,0 1,0.448 1,1l-0,9l-44.5,-0c-0.796,-0 -1.559,0.316 -2.121,0.879c-0.563,0.562 -0.879,1.325 -0.879,2.121c0,3.832 0,12.168 0,16c-0,0.796 0.316,1.559 0.879,2.121c0.562,0.563 1.325,0.879 2.121,0.879l1.5,-0l0,10c-0,1.657 1.343,3 3,3l39,0c1.657,-0 3,-1.343 3,-3l0,-7.5c-0,-0.552 -0.448,-1 -1,-1c-0.552,0 -1,0.448 -1,1c0,0 0,4.713 0,7.5c0,0.552 -0.448,1 -1,1c-0,0 -39,-0 -39,-0c-0.552,-0 -1,-0.448 -1,-1l0,-10l44.5,-0c0.796,0 1.559,-0.316 2.121,-0.879c0.563,-0.562 0.879,-1.325 0.879,-2.121l0,-16c0,-0.796 -0.316,-1.559 -0.879,-2.121c-0.562,-0.563 -1.325,-0.879 -2.121,-0.879l-1.5,-0l0,-9c-0,-1.657 -1.343,-3 -3,-3l-1,0l0,-10c0,-0.552 -0.448,-1 -1,-1l-33.5,0c-3.59,0 -6.5,2.91 -6.5,6.5l0.007,0.007Zm9.993,46.493l25,0c0.552,-0 1,-0.448 1,-1c-0,-0.552 -0.448,-1 -1,-1l-25,0c-0.552,-0 -1,0.448 -1,1c-0,0.552 0.448,1 1,1Zm0,-4l25,0c0.552,0 1,-0.448 1,-1c0,-0.552 -0.448,-1 -1,-1l-25,0c-0.552,0 -1,0.448 -1,1c0,0.552 0.448,1 1,1Zm37.5,-23l0,16c0,0.265 -0.105,0.52 -0.293,0.707c-0.187,0.188 -0.442,0.293 -0.707,0.293l-48,-0c-0.265,0 -0.52,-0.105 -0.707,-0.293c-0.188,-0.187 -0.293,-0.442 -0.293,-0.707l0,-16c-0,-0.265 0.105,-0.52 0.293,-0.707c0.187,-0.188 0.442,-0.293 0.707,-0.293l48,-0c0.265,-0 0.52,0.105 0.707,0.293c0.188,0.187 0.293,0.442 0.293,0.707Zm-46,9l3,-0c0.552,-0 1,-0.448 1,-1c-0,-0.552 -0.448,-1 -1,-1l-3,-0l0,-4c-0,-0 3,-0 3,-0c0.552,0 1,-0.448 1,-1c0,-0.552 -0.448,-1 -1,-1l-4,-0c-0.552,-0 -1,0.448 -1,1l0,12c0,0.552 0.448,1 1,1l4,-0c0.552,-0 1,-0.448 1,-1c-0,-0.552 -0.448,-1 -1,-1l-3,-0l-0,-4Zm10,-8c-0,0 2,-0 3,-0c0.398,0 0.796,0.059 1.177,0.176c0.495,0.153 0.958,0.402 1.357,0.73c0.304,0.249 0.57,0.542 0.789,0.868c0.242,0.361 0.425,0.76 0.538,1.179c0.166,0.61 0.183,1.259 0.053,1.877c-0.078,0.368 -0.208,0.724 -0.386,1.055c-0.223,0.417 -0.521,0.793 -0.875,1.107l0,0.016c0.135,0.119 0.261,0.248 0.379,0.384c0.22,0.256 0.408,0.539 0.557,0.842c0.206,0.417 0.338,0.87 0.388,1.332c0.048,0.446 0.021,0.9 -0.08,1.337c-0.082,0.357 -0.215,0.703 -0.392,1.024c-0.242,0.439 -0.566,0.831 -0.952,1.151c-0.357,0.297 -0.765,0.531 -1.201,0.687c-0.269,0.097 -0.547,0.164 -0.83,0.201l-3.522,0.034c-0.552,0 -1,-0.448 -1,-1l0,-12c-0,-0.552 0.448,-1 1,-1Zm28,10.135l4.36,3.633c0.424,0.354 1.055,0.296 1.408,-0.128c0.354,-0.424 0.296,-1.055 -0.128,-1.408l-5.64,-4.7l0,-0.064l5.64,-4.7c0.424,-0.353 0.482,-0.984 0.128,-1.408c-0.353,-0.424 -0.984,-0.482 -1.408,-0.128l-4.36,3.633l0,-2.865c0,-0.552 -0.448,-1 -1,-1c-0.552,-0 -1,0.448 -1,1l0,11c0,0.552 0.448,1 1,1c0.552,-0 1,-0.448 1,-1l0,-2.865Zm-12,-7.635c0,-1.38 -1.12,-2.5 -2.5,-2.5c0,-0 -3,-0 -3,-0c-1.38,-0 -2.5,1.12 -2.5,2.5c0,-0 0,9 0,9c0,1.38 1.12,2.5 2.5,2.5c-0,-0 3,-0 3,-0c1.38,-0 2.5,-1.12 2.5,-2.5l0,-9Zm9,-0c0,-1.38 -1.12,-2.5 -2.5,-2.5c0,-0 -3,-0 -3,-0c-1.38,-0 -2.5,1.12 -2.5,2.5l0,9c0,1.38 1.12,2.5 2.5,2.5c-0,-0 3,-0 3,-0c1.38,-0 2.5,-1.12 2.5,-2.5c0,-0 0,-9 0,-9Zm-24,9.5l0,-10c-0,-0 2,-0 2,-0c1.104,-0 2,0.896 2,2c0,1.1 -0.889,1.993 -1.987,2l-0,0.001c-0.529,0.026 -0.951,0.463 -0.951,0.999c-0,0.536 0.422,0.973 0.951,0.999l-0,0.001c1.098,0.007 1.987,0.9 1.987,2c0,1.104 -0.896,2 -2,2c0,-0 -2,-0 -2,0Zm13,-9.5l0,9c0,0.276 -0.224,0.5 -0.5,0.5l-3,-0c-0.276,-0 -0.5,-0.224 -0.5,-0.5l0,-9c0,-0.276 0.224,-0.5 0.5,-0.5l3,-0c0.276,-0 0.5,0.224 0.5,0.5Zm9,-0l0,9c0,0.276 -0.224,0.5 -0.5,0.5l-3,-0c-0.276,-0 -0.5,-0.224 -0.5,-0.5c0,0 0,-9 0,-9c0,-0.276 0.224,-0.5 0.5,-0.5l3,-0c0.276,-0 0.5,0.224 0.5,0.5Zm-27,5.5l1,-0c0.552,-0 1,-0.448 1,-1c-0,-0.552 -0.448,-1 -1,-1l-1,-0c-0.552,-0 -1,0.448 -1,1c-0,0.552 0.448,1 1,1Zm2.5,-14l25,0c0.552,-0 1,-0.448 1,-1c-0,-0.552 -0.448,-1 -1,-1l-25,0c-0.552,-0 -1,0.448 -1,1c-0,0.552 0.448,1 1,1Zm0,-4l25,0c0.552,0 1,-0.448 1,-1c0,-0.552 -0.448,-1 -1,-1l-25,0c-0.552,0 -1,0.448 -1,1c0,0.552 0.448,1 1,1Z"/></g></svg>