<svg id="Layer_1" data-name="Layer 1" xmlns="http://www.w3.org/2000/svg" viewBox="0 0 48 48"><defs><style>.cls-1{fill:#c6c6c6;}.cls-2{fill:#dedee0;}.cls-3{fill:#edebf2;}.cls-4{fill:#f26674;}.cls-5{fill:#a9a5c4;}.cls-6{fill:#ffba55;}.cls-7{fill:#2c435e;}.cls-8{fill:#e8968e;}.cls-9{fill:#ffde76;}</style></defs><title>education, rating, grade, paper, document, pencil</title><rect class="cls-1" x="8.33" y="8.33" width="29.37" height="39.17"/><rect class="cls-2" x="4.42" y="4.42" width="29.37" height="39.17"/><rect class="cls-3" x="0.5" y="0.5" width="29.37" height="39.17"/><polygon class="cls-4" points="26.69 12.25 24.64 12.25 22.53 5.21 20.43 12.25 18.37 12.25 21.32 2.46 23.75 2.46 26.69 12.25"/><rect class="cls-4" x="20.08" y="8.33" width="4.9" height="1.96"/><rect class="cls-5" x="4.42" y="15.19" width="21.54" height="1.96" rx="0.98"/><rect class="cls-5" x="4.42" y="21.06" width="4.9" height="1.96" rx="0.98"/><rect class="cls-5" x="11.27" y="21.06" width="14.69" height="1.96" rx="0.98"/><rect class="cls-5" x="16.17" y="26.94" width="9.79" height="1.96" rx="0.98"/><rect class="cls-5" x="4.42" y="26.94" width="9.79" height="1.96" rx="0.98"/><rect class="cls-5" x="4.42" y="32.81" width="11.75" height="1.96" rx="0.98"/><polygon class="cls-6" points="47.5 14.21 47.5 37.71 45.55 41.63 43.58 37.71 43.58 14.21 47.5 14.21"/><path class="cls-3" d="M47.5,37.48v.23l-1,2.1-.9,1.81-.91-1.81-1.06-2.1v-.23a2.94,2.94,0,0,1,3.92,0Z"/><path class="cls-7" d="M46.45,39.81l-.9,1.81-.91-1.81a3,3,0,0,1,1.81,0Z"/><path class="cls-8" d="M44.56,9.31h2a1,1,0,0,1,1,1v3.92a0,0,0,0,1,0,0H43.58a0,0,0,0,1,0,0V10.29A1,1,0,0,1,44.56,9.31Z"/><rect class="cls-9" x="43.58" y="14.21" width="3.92" height="1.96"/></svg>