<?xml version="1.0" encoding="utf-8"?>
<!-- Generator: Adobe Illustrator 19.2.0, SVG Export Plug-In . SVG Version: 6.00 Build 0)  -->
<svg version="1.1" id="pcnetwork" xmlns="http://www.w3.org/2000/svg" xmlns:xlink="http://www.w3.org/1999/xlink" x="0px" y="0px"
	 viewBox="0 0 232 200" enable-background="new 0 0 232 200" xml:space="preserve">
<g>
	<rect x="8" y="132" fill="none" width="80" height="48"/>
	<rect x="76" y="8" fill="none" width="80" height="48"/>
	<rect x="144" y="132" fill="none" width="80" height="48"/>
	<path d="M136,124v64h96v-64H136z M224,180h-80v-48h80V180z"/>
	<rect x="168" y="192" width="32" height="8"/>
	<path d="M0,188h96v-64H0V188z M8,132h80v48H8V132z"/>
	<rect x="32" y="192" width="32" height="8"/>
	<path d="M164,0H68v64h96V0z M156,56H76V8h80V56z"/>
	<rect x="100" y="68" width="32" height="8"/>
	<polygon points="52,108 180,108 180,120 188,120 188,108 188,106 188,100 120,100 120,80 112,80 112,100 44,100 44,106 44,108 
		44,120 52,120 	"/>
</g>
</svg>
