<?xml version="1.0" ?><svg style="enable-background:new 0 0 32 32;" version="1.1" viewBox="0 0 32 32" xml:space="preserve" xmlns="http://www.w3.org/2000/svg" xmlns:xlink="http://www.w3.org/1999/xlink"><style type="text/css">
	.st0{display:none;}
	.st1{display:inline;}
	.st2{fill:#0097E2;}
	.st3{fill:#3A3A3A;}
</style><g class="st0" id="grid"/><g id="icon"><g><g><path class="st2" d="M21,16c-0.26,0-0.51-0.1-0.71-0.29L16,11.41l-4.29,4.29c-0.39,0.39-1.02,0.39-1.41,0s-0.39-1.02,0-1.41l5-5     c0.39-0.39,1.02-0.39,1.41,0l5,5c0.39,0.39,0.39,1.02,0,1.41C21.51,15.9,21.26,16,21,16z"/></g></g><g><g><path class="st2" d="M21,22c-0.26,0-0.51-0.1-0.71-0.29L16,17.41l-4.29,4.29c-0.39,0.39-1.02,0.39-1.41,0s-0.39-1.02,0-1.41l5-5     c0.39-0.39,1.02-0.39,1.41,0l5,5c0.39,0.39,0.39,1.02,0,1.41C21.51,21.9,21.26,22,21,22z"/></g></g></g></svg>