<svg xmlns="http://www.w3.org/2000/svg" version="1.1" xmlns:xlink="http://www.w3.org/1999/xlink" xmlns:svgjs="http://svgjs.dev/svgjs" width="1000" height="803" viewBox="0 0 1000 803"><g transform="matrix(1,0,0,1,0,0)"><svg viewBox="0 0 448 360" data-background-color="#ffffff" preserveAspectRatio="xMidYMid meet" height="803" width="1000" xmlns="http://www.w3.org/2000/svg" xmlns:xlink="http://www.w3.org/1999/xlink"><g id="tight-bounds" transform="matrix(1,0,0,1,0,0)"><svg viewBox="0 0 448 360" height="360" width="448"><g><svg></svg></g><g><svg viewBox="0 0 448 360" height="360" width="448"><g><path xmlns="http://www.w3.org/2000/svg" d="M193.855 44.683c1.378 0 2.494 1.116 2.495 2.494 0 1.378-1.116 2.494-2.495 2.495h-23.846l-17.167 17.167c-0.973 0.973-2.551 0.973-3.53 0-0.973-0.973-0.973-2.551 0-3.529l13.644-13.645h-40.378c-11.518 0-19.151 2.688-23.815 8.113-4.739 5.519-6.66 14.056-6.66 25.63 0 0.069 0 0.137-0.006 0.206l0.212 36.692 14.692-14.692c0.973-0.973 2.551-0.973 3.53 0 0.973 0.973 0.973 2.551 0 3.53l-18.178 18.178c0.206 35.832 0.193 71.358-0.013 107.19 25.486 25.2 50.617 50.312 75.811 75.791h25.38c1.378 0 2.494 1.116 2.495 2.495 0 1.378-1.116 2.494-2.495 2.494h-20.448l25.942 26.241 0.006-0.006c8.188 8.188 15.577 12.859 22.824 13.413 7.146 0.543 14.442-2.956 22.586-11.093l28.555-28.555h-20.722c-1.378 0-2.494-1.116-2.495-2.494 0-1.378 1.116-2.494 2.495-2.495h25.711l16.625-16.625c0.973-0.973 2.551-0.973 3.529 0 0.973 0.973 0.973 2.551 0 3.53l-13.101 13.102h40.377c11.518 0 19.151-2.688 23.815-8.113 4.739-5.519 6.66-14.056 6.66-25.63h0.013l-0.212-36.898-16.014 16.014c-0.973 0.973-2.551 0.973-3.53 0-0.973-0.973-0.973-2.551 0-3.53l19.5-19.5c-0.206-35.832-0.193-71.358 0.013-107.19-25.486-25.2-50.617-50.312-75.811-75.791h-26.147c-1.378 0-2.494-1.116-2.495-2.495 0-1.378 1.116-2.494 2.495-2.494h21.215l-25.824-26.123c-0.044-0.037-0.081-0.075-0.124-0.112-8.188-8.188-15.577-12.859-22.824-13.413-7.146-0.543-14.442 2.956-22.586 11.093l-28.555 28.555h18.858zM122.578 44.683h45.367l32.078-32.078c9.248-9.248 17.81-13.195 26.484-12.534 8.568 0.649 16.956 5.824 25.985 14.854 0.05 0.05 0.094 0.094 0.137 0.143l29.278 29.615h43.508c13.071 0 21.919 3.268 27.594 9.871 5.6 6.517 7.864 16.101 7.864 28.867 0 0.081-0.006 0.156-0.012 0.23l-0.225 39.742 28.43 28.112 0.006-0.006c9.03 9.03 14.206 17.411 14.854 25.985 0.661 8.674-3.293 17.236-12.534 26.484l-30.768 30.768 0.237 41.843h0.012c0 12.765-2.27 22.35-7.864 28.867-5.675 6.604-14.524 9.872-27.594 9.871h-45.366l-32.078 32.078c-9.248 9.248-17.81 13.195-26.484 12.534-8.568-0.649-16.956-5.824-25.985-14.854l0.006-0.006-29.421-29.758h-43.509c-13.071 0-21.919-3.268-27.594-9.872-5.6-6.517-7.864-16.101-7.863-28.866h0.012l0.231-39.972-28.293-27.969c-0.05-0.044-0.1-0.087-0.143-0.137-9.03-9.03-14.206-17.411-14.854-25.985-0.661-8.674 3.293-17.236 12.534-26.484l30.768-30.768-0.237-41.607c-0.006-0.075-0.012-0.156-0.012-0.23 0-12.765 2.27-22.35 7.864-28.867 5.675-6.604 14.524-9.872 27.594-9.871zM87.682 179.997l-0.274-47.724-27.276 27.276c-8.138 8.138-11.636 15.44-11.094 22.587 0.549 7.246 5.226 14.642 13.413 22.823 0.037 0.037 0.081 0.081 0.113 0.125l24.837 24.551 0.281-49.644zM92.303 241.483l-0.2 35.09h0.013c0 11.58 1.921 20.117 6.66 25.63 4.664 5.432 12.297 8.113 23.815 8.113h38.576l-33.55-33.936-35.308-34.903zM325.415 49.672h-38.575l33.549 33.936 35.308 34.902 0.2-34.884c-0.006-0.069-0.006-0.137-0.007-0.205 0-11.58-1.921-20.117-6.66-25.63-4.664-5.432-12.297-8.113-23.815-8.113zM360.599 130.352l-0.281 49.645 0.274 47.724 27.276-27.276c8.138-8.138 11.636-15.44 11.094-22.587-0.549-7.252-5.226-14.642-13.413-22.824l0.006-0.006-24.956-24.669z" fill="#001f3f" fill-rule="nonzero" stroke="none" stroke-width="1" stroke-linecap="butt" stroke-linejoin="miter" stroke-miterlimit="10" stroke-dasharray="" stroke-dashoffset="0" font-family="none" font-weight="none" font-size="none" text-anchor="none" style="mix-blend-mode: normal" data-fill-palette-color="tertiary"></path></g><g transform="matrix(1,0,0,1,134.08999999999997,90.08999999999999)"><svg viewBox="0 0 179.82000000000002 179.82000000000002" height="179.82000000000002" width="179.82000000000002"><g><svg viewBox="0 0 179.82000000000002 179.82000000000002" height="179.82000000000002" width="179.82000000000002"><g><svg viewBox="0 0 179.82000000000002 179.82000000000002" height="179.82000000000002" width="179.82000000000002"><g id="textblocktransform"><svg viewBox="0 0 179.82000000000002 179.82000000000002" height="179.82000000000002" width="179.82000000000002" id="textblock"><g><svg viewBox="0 0 179.82000000000002 179.82000000000002" height="179.82000000000002" width="179.82000000000002"><g transform="matrix(1,0,0,1,36.93002441959793,36.93002441959793)"><svg viewBox="0 0 105.95995116080417 105.95995116080417" height="105.95995116080417" width="105.95995116080417"><g><circle r="53" cx="52.97997558040208" cy="52.97997558040208" fill="#0074d9" data-fill-palette-color="accent"></circle><svg xmlns="http://www.w3.org/2000/svg" xmlns:xlink="http://www.w3.org/1999/xlink" version="1.1" x="15.893992674120625" y="15.893992674120625" viewBox="0 0 100 100" enable-background="new 0 0 100 100" xml:space="preserve" height="74.17196581256292" width="74.17196581256292" class="icon-o-0" data-fill-palette-color="quaternary" id="o-0"><g fill="#ffdc00" data-fill-palette-color="quaternary"><g fill="#ffdc00" data-fill-palette-color="quaternary"><path fill="#ffdc00" d="M57.066 39.532c0.327-0.372 0.211-0.805-0.257-0.965l-6.35-2.139c-0.463-0.171-0.945 0.079-1.071 0.557l-0.319 1.21c-0.126 0.479 0.155 0.997 0.624 1.152l2.021 0.638c0.469 0.152 0.584 0.574 0.253 0.943l-1.462 1.628c-0.331 0.366-0.317 0.95 0.035 1.298l0.813 0.812c0.351 0.349 0.905 0.328 1.23-0.043L57.066 39.532z" data-fill-palette-color="quaternary"></path><path fill="#ffdc00" d="M35.111 49.171c0.238-0.434 0.761-0.554 1.163-0.266 0 0 0.449 0.32 0.852 0.605 0.401 0.286 0.535 0.876 0.298 1.309l-0.711 1.304c-0.237 0.435-0.794 0.626-1.234 0.429-0.443-0.2-1.582-1.154-1.347-1.586L35.111 49.171z" data-fill-palette-color="quaternary"></path><path fill="#ffdc00" d="M15.526 73.361c-0.457-0.19-0.638-0.701-0.402-1.136l0.979-1.804c0.235-0.434 0.763-0.562 1.17-0.285l0.864 0.587c0.407 0.279 0.548 0.862 0.312 1.297l-0.706 1.293c-0.236 0.434-0.784 0.642-1.218 0.461C16.092 73.595 15.526 73.361 15.526 73.361" data-fill-palette-color="quaternary"></path><path fill="#ffdc00" d="M34.51 55.192c0.476 0.136 0.781 0.643 0.679 1.125l-0.316 1.492c-0.103 0.484-0.577 0.832-1.058 0.775-0.479-0.057-1.82-0.62-1.725-1.105l0.378-1.943c0.096-0.486 0.562-0.771 1.037-0.633L34.51 55.192z" data-fill-palette-color="quaternary"></path><path fill="#ffdc00" d="M20.869 65.393c0.386-0.306 0.917-0.214 1.177 0.207l0.556 0.895c0.263 0.421 0.156 1.013-0.231 1.321l-1.112 0.877c-0.389 0.307-0.988 0.267-1.333-0.088l-0.73-0.75c-0.344-0.354-0.31-0.894 0.077-1.199L20.869 65.393z" data-fill-palette-color="quaternary"></path><path fill="#ffdc00" d="M43.558 42.912c-0.211-0.446-0.006-0.954 0.457-1.126l1.817-0.678c0.462-0.172 0.949 0.076 1.084 0.553l0.276 0.992c0.134 0.477-0.136 1.009-0.597 1.186l-1.364 0.518c-0.463 0.175-1.009-0.04-1.217-0.477C43.807 43.442 43.558 42.912 43.558 42.912" data-fill-palette-color="quaternary"></path><path fill="#ffdc00" d="M15.614 76.432c0.481 0.116 0.812 0.612 0.736 1.099l-0.232 1.504c-0.077 0.487-0.534 0.858-1.016 0.823-0.481-0.037-1.845-0.542-1.77-1.031l0.293-1.954c0.072-0.489 0.525-0.793 1.006-0.677L15.614 76.432z" data-fill-palette-color="quaternary"></path><path fill="#ffdc00" d="M32.104 64.286c-0.492 0.039-0.966-0.309-1.049-0.771-0.087-0.463 0.053-1.934 0.546-1.97l1.952-0.136c0.494-0.035 0.932 0.34 0.976 0.83 0 0 0.044 0.49 0.087 0.971 0.042 0.479-0.327 0.903-0.818 0.943L32.104 64.286z" data-fill-palette-color="quaternary"></path><path fill="#ffdc00" d="M14.473 86.349c-0.459 0.109-0.894-0.201-0.96-0.69l-0.269-1.961c-0.067-0.492 0.282-0.913 0.774-0.942l1.034-0.055c0.493-0.028 0.928 0.354 0.969 0.845l0.122 1.498C16.184 85.534 14.936 86.239 14.473 86.349" data-fill-palette-color="quaternary"></path><path fill="#ffdc00" d="M26.275 65.737c-0.467 0.164-1.006-0.075-1.197-0.531l-0.4-0.945c-0.193-0.455 0.031-0.962 0.499-1.126l1.78-0.628c0.465-0.164 0.951 0.092 1.08 0.568l0.268 1.006c0.128 0.476-0.147 1-0.615 1.161L26.275 65.737z" data-fill-palette-color="quaternary"></path><path fill="#ffdc00" d="M41.561 45.193c0.278 0.409 0.193 1.002-0.186 1.316l-1.107 0.919c-0.38 0.318-0.972 0.302-1.313-0.031-0.342-0.334-1.092-1.628-0.717-1.948l1.535-1.302c0.376-0.32 0.911-0.246 1.188 0.163L41.561 45.193z" data-fill-palette-color="quaternary"></path><path fill="#ffdc00" d="M28.693 91.086c0-4.475-0.002-8.79 0-13.105 0-1.961 0.627-2.578 2.619-2.578 3.917-0.001 7.836-0.001 11.757-0.001h1.308v-1.235c0-4.029-0.004-8.058 0.002-12.085 0.002-1.671 0.703-2.357 2.397-2.36 3.993-0.005 7.983-0.001 11.976-0.001h1.309v-1.237c0-4.027-0.006-8.056 0.003-12.083 0.003-1.673 0.702-2.362 2.396-2.363 4.898-0.004 17.131-0.003 22.03 0 1.587 0 2.484 0.699 2.498 1.934 0.017 1.234-0.897 1.976-2.453 1.977-4.354 0.003-16.039 0.002-20.561 0.002v1.184c0 4.028 0.003 8.056-0.002 12.084-0.002 1.738-0.689 2.413-2.455 2.414-4.353 0.004-8.704 0.002-13.229 0.002v1.184c0 4.027 0.003 8.056-0.001 12.084-0.001 1.738-0.688 2.413-2.452 2.414-4.354 0.004-8.706 0.002-13.231 0.002v1.184c0 4.027 0.006 8.055 0 12.083-0.003 1.739-0.688 2.415-2.452 2.417-4.86 0.002-9.724 0.001-14.588 0-1.652 0-2.572-0.719-2.553-1.987 0.019-1.229 0.917-1.924 2.508-1.924 3.953-0.003 7.911-0.002 11.866-0.002H28.693z" data-fill-palette-color="quaternary"></path><path fill="#ffdc00" d="M72.418 22.164c0 6.147 0 12.296 0 18.44 0 0.95-0.242 1.197-1.183 1.197-1.201 0.002-2.4 0.006-3.602 0-0.794-0.004-1.081-0.292-1.081-1.09-0.002-12.349-0.002-22.328 0-34.676 0-0.773 0.271-1.035 1.055-1.036 1.236 0 2.473 0 3.71 0 0.865 0.001 1.101 0.232 1.101 1.092C72.418 12.239 72.418 16.019 72.418 22.164" data-fill-palette-color="quaternary"></path><path fill="#ffdc00" d="M65.826 24.948c0 5.202 0 10.403 0 15.606 0 1.032-0.215 1.249-1.24 1.249-1.184 0-2.363 0.004-3.547-0.002-0.784-0.004-1.05-0.271-1.05-1.047 0-10.51 0-18.656 0-29.168 0-0.746 0.269-1.016 1.016-1.018 1.2-0.004 2.4-0.002 3.601-0.001 1.021 0 1.219 0.191 1.221 1.198C65.826 16.95 65.826 19.767 65.826 24.948" data-fill-palette-color="quaternary"></path><path fill="#ffdc00" d="M86.496 39.972c-0.187 0.181-0.377 0.512-0.648 0.602-1.322 0.443-2.663 0.831-4.004 1.215-0.575 0.165-0.903-0.092-1.114-0.8-0.896-2.983-1.788-5.968-2.68-8.952-1.696-5.674-3.391-11.349-5.085-17.023-0.238-0.807-0.079-1.109 0.701-1.346 1.194-0.361 2.392-0.722 3.589-1.075 0.724-0.214 1.074-0.013 1.296 0.728 2.589 8.658 5.178 17.318 7.768 25.977C86.367 39.468 86.41 39.644 86.496 39.972" data-fill-palette-color="quaternary"></path></g></g></svg></g></svg></g><g><path d="M20.531 65.761v0c-0.746 2.125-2.062 3.509-3.948 4.151-1.886 0.642-4.284 0.452-7.196-0.571v0c-2.893-1.016-4.897-2.371-6.011-4.066-1.109-1.693-1.29-3.602-0.544-5.728v0c0.481-1.37 1.214-2.413 2.2-3.129 0.983-0.709 2.13-1.126 3.442-1.25v0l0.283 1.446c-1.058 0.049-1.996 0.357-2.815 0.925-0.813 0.57-1.409 1.394-1.787 2.472v0c-0.561 1.599-0.429 3.049 0.396 4.351 0.832 1.304 2.31 2.329 4.436 3.075v0l1.931 0.678c2.106 0.739 3.876 0.855 5.309 0.346 1.426-0.511 2.42-1.566 2.981-3.164v0c0.401-1.142 0.444-2.199 0.13-3.172-0.306-0.977-0.884-1.825-1.736-2.544v0l1.135-0.948c1.002 0.922 1.674 1.991 2.016 3.209 0.34 1.224 0.266 2.53-0.222 3.919z" fill="#001f3f" data-fill-palette-color="primary"></path><path d="M32.101 44.446l-5.346 7.926-15.033-10.139 0.874-1.296 13.888 9.367 4.472-6.631z" fill="#001f3f" data-fill-palette-color="primary"></path><path d="M42.535 35.196v0c-1.751 1.521-3.644 2.115-5.68 1.781-2.035-0.334-4.063-1.663-6.082-3.988v0c-2.024-2.33-3.056-4.523-3.097-6.58-0.046-2.062 0.807-3.854 2.558-5.375v0c1.741-1.512 3.631-2.099 5.671-1.76 2.035 0.343 4.057 1.672 6.068 3.987v0c2.01 2.315 3.043 4.503 3.098 6.566 0.05 2.067-0.795 3.857-2.536 5.369zM41.615 34.138v0c0.655-0.569 1.147-1.197 1.477-1.884 0.335-0.691 0.496-1.423 0.483-2.196-0.007-0.777-0.185-1.576-0.532-2.397-0.347-0.82-0.874-1.637-1.579-2.448v0l-1.495-1.721c-0.705-0.812-1.44-1.448-2.203-1.906-0.768-0.464-1.532-0.749-2.292-0.855-0.755-0.11-1.502-0.053-2.243 0.171-0.731 0.225-1.423 0.622-2.078 1.191v0c-0.655 0.569-1.147 1.201-1.477 1.897-0.331 0.706-0.497 1.442-0.499 2.21 0.004 0.763 0.179 1.559 0.526 2.389 0.347 0.82 0.874 1.637 1.579 2.449v0l1.494 1.72c0.705 0.812 1.44 1.448 2.204 1.907 0.769 0.454 1.535 0.742 2.298 0.862 0.769 0.116 1.521 0.055 2.258-0.184 0.731-0.235 1.424-0.636 2.079-1.205z" fill="#001f3f" data-fill-palette-color="primary"></path><path d="M48.173 9.405l1.414-0.642 4.626 10.194c0.417 0.918 0.847 1.679 1.29 2.283 0.453 0.607 0.941 1.05 1.466 1.328 0.528 0.285 1.116 0.409 1.765 0.374 0.648-0.036 1.373-0.236 2.175-0.6v0c0.808-0.367 1.436-0.781 1.884-1.242 0.448-0.462 0.741-0.986 0.881-1.574 0.142-0.581 0.134-1.242-0.025-1.982-0.162-0.731-0.451-1.556-0.868-2.474v0l-4.625-10.194 1.414-0.642 4.488 9.891c0.55 1.212 0.921 2.299 1.114 3.26 0.184 0.958 0.18 1.82-0.012 2.586-0.2 0.763-0.604 1.444-1.21 2.044-0.612 0.603-1.448 1.144-2.508 1.625v0c-1.053 0.478-2.005 0.747-2.855 0.808-0.845 0.058-1.614-0.091-2.308-0.448-0.703-0.36-1.341-0.931-1.917-1.711-0.584-0.783-1.151-1.781-1.701-2.993v0z" fill="#001f3f" data-fill-palette-color="primary"></path><path d="M76.557 18.802l-2.309-17.986 5.722-0.734c2.321-0.298 4.207 0.219 5.659 1.551 1.452 1.332 2.371 3.502 2.757 6.509v0c0.386 3.008 0.045 5.339-1.023 6.995-1.069 1.656-2.763 2.632-5.084 2.93v0zM77.932 17.232l4.201-0.539c1.767-0.227 3.068-0.973 3.901-2.24 0.834-1.266 1.121-2.906 0.863-4.92v0l-0.304-2.371c-0.258-2.007-0.95-3.518-2.077-4.532-1.128-1.021-2.575-1.418-4.342-1.192v0l-4.201 0.54z" fill="#001f3f" data-fill-palette-color="primary"></path><path d="M98.476 18.052l2.912-17.898 6.998 1.139c1.407 0.229 2.44 0.806 3.1 1.73 0.668 0.919 0.886 2.089 0.655 3.509v0c-0.1 0.617-0.268 1.145-0.503 1.584-0.24 0.431-0.512 0.778-0.813 1.043-0.31 0.27-0.645 0.471-1.007 0.602-0.369 0.131-0.718 0.207-1.049 0.228v0l-0.016 0.099c0.396 0.119 0.784 0.308 1.164 0.568 0.379 0.266 0.703 0.601 0.971 1.006 0.268 0.405 0.463 0.882 0.584 1.433 0.12 0.558 0.124 1.185 0.011 1.882v0c-0.12 0.737-0.336 1.396-0.649 1.979-0.319 0.582-0.715 1.066-1.187 1.452-0.478 0.385-1.013 0.659-1.605 0.822-0.597 0.155-1.238 0.177-1.921 0.065v0zM101.425 9.662l-1.184 7.277 5.694 0.926c1.075 0.175 1.942 0.016 2.601-0.476 0.66-0.499 1.067-1.219 1.22-2.161v0l0.154-0.946c0.15-0.922-0.009-1.725-0.477-2.407-0.468-0.682-1.239-1.111-2.315-1.286v0zM102.71 1.759l-1.068 6.57 5.305 0.863c0.976 0.159 1.761 0.018 2.358-0.424 0.595-0.434 0.96-1.063 1.093-1.886v0l0.159-0.975c0.134-0.823-0.013-1.535-0.439-2.136-0.426-0.607-1.126-0.99-2.102-1.149v0z" fill="#001f3f" data-fill-palette-color="primary"></path><path d="M119.743 23.801v0c-0.399-0.16-0.653-0.377-0.76-0.651-0.107-0.275-0.096-0.574 0.034-0.899v0l0.105-0.262c0.13-0.325 0.328-0.549 0.595-0.674 0.267-0.125 0.601-0.107 1 0.052v0c0.387 0.155 0.637 0.371 0.751 0.648 0.114 0.277 0.105 0.578-0.024 0.903v0l-0.105 0.262c-0.13 0.325-0.332 0.548-0.605 0.67-0.273 0.122-0.604 0.106-0.991-0.049z" fill="#001f3f" data-fill-palette-color="primary"></path><path d="M130.889 29.785l-1.287-0.887 10.283-14.934 5.865 4.038c1.296 0.892 2.03 1.949 2.201 3.169 0.172 1.22-0.184 2.473-1.069 3.757v0c-0.896 1.301-1.945 2.089-3.146 2.364-1.201 0.275-2.45-0.034-3.746-0.926v0l-4.577-3.151zM140.395 15.98l-4.204 6.105 4.577 3.151c0.858 0.591 1.678 0.8 2.458 0.628 0.776-0.167 1.42-0.622 1.931-1.364v0l0.709-1.03c0.5-0.725 0.689-1.481 0.568-2.266-0.117-0.791-0.604-1.481-1.462-2.073v0z" fill="#001f3f" data-fill-palette-color="primary"></path><path d="M159.112 30.241l0.99 1.197-8.625 7.135c-0.777 0.643-1.399 1.257-1.865 1.843-0.467 0.596-0.766 1.183-0.898 1.764-0.136 0.584-0.102 1.184 0.102 1.8 0.204 0.616 0.587 1.264 1.149 1.942v0c0.566 0.684 1.13 1.181 1.692 1.493 0.563 0.311 1.146 0.457 1.75 0.437 0.598-0.015 1.234-0.196 1.906-0.543 0.663-0.348 1.383-0.843 2.161-1.486v0l8.626-7.135 0.99 1.197-8.37 6.923c-1.026 0.848-1.977 1.492-2.854 1.929-0.876 0.428-1.709 0.65-2.499 0.666-0.789 0.007-1.552-0.204-2.289-0.632-0.742-0.433-1.484-1.098-2.226-1.994v0c-0.737-0.891-1.247-1.739-1.528-2.544-0.278-0.8-0.335-1.581-0.172-2.345 0.164-0.772 0.547-1.538 1.148-2.298 0.603-0.769 1.417-1.578 2.443-2.426v0z" fill="#001f3f" data-fill-palette-color="primary"></path><path d="M157.511 60.12l16.716-7.027 2.747 6.536c0.552 1.314 0.612 2.496 0.178 3.546-0.425 1.054-1.301 1.859-2.627 2.417v0c-0.576 0.242-1.113 0.38-1.609 0.414-0.493 0.025-0.931-0.021-1.315-0.136-0.393-0.119-0.741-0.297-1.045-0.534-0.306-0.243-0.556-0.499-0.75-0.768v0l-0.093 0.039c0.109 0.399 0.155 0.828 0.137 1.288-0.024 0.462-0.137 0.915-0.338 1.356-0.201 0.442-0.503 0.86-0.905 1.256-0.409 0.398-0.939 0.734-1.59 1.007v0c-0.688 0.289-1.362 0.456-2.021 0.5-0.662 0.038-1.282-0.041-1.861-0.235-0.58-0.201-1.096-0.509-1.548-0.925-0.448-0.424-0.806-0.956-1.075-1.594v0zM166.186 58.169l-6.796 2.857 2.236 5.317c0.422 1.004 1.017 1.655 1.783 1.953 0.773 0.295 1.6 0.257 2.48-0.113v0l0.883-0.371c0.862-0.362 1.457-0.923 1.788-1.681 0.33-0.759 0.284-1.64-0.138-2.644v0zM173.568 55.066l-6.136 2.579 2.083 4.955c0.383 0.911 0.92 1.502 1.61 1.774 0.684 0.274 1.41 0.249 2.179-0.074v0l0.911-0.383c0.769-0.323 1.294-0.825 1.577-1.505 0.289-0.683 0.242-1.48-0.141-2.391v0z" fill="#001f3f" data-fill-palette-color="primary"></path><path d="M10.422 127.18l11.061-3.746-0.026-0.077-9.056-1.713 6.147-6.874-0.022-0.067-11.061 3.747-0.35-1.032 12.437-4.212 0.495 1.461-5.669 6.307 0.016 0.048 8.335 1.564 0.479 1.413-12.437 4.213z" fill="#001f3f" data-fill-palette-color="primary"></path><path d="M15.7 137.203l-0.564-0.979 4.614-2.658 4.502-7.821 0.64 1.11-3.848 6.593 0.03 0.053 7.639-0.014 0.64 1.109-8.996-0.077z" fill="#001f3f" data-fill-palette-color="primary"></path><path d="M29.715 155.331l1.917-7.936-3.163 0.02-3.262 2.978-0.762-0.834 9.697-8.853 0.762 0.834-5.46 4.984 0.021 0.023 3.208-0.076 6.589-0.157 0.925 1.013-7.458 0.118-2.076 8.914z" fill="#001f3f" data-fill-palette-color="primary"></path><path d="M40.469 164.226l1.785-13.373-0.04-0.031-7.198 9.081-0.853-0.677 8.156-10.29 1.107 0.877-1.793 13.366 0.048 0.038 7.198-9.081 0.854 0.677-8.157 10.29z" fill="#001f3f" data-fill-palette-color="primary"></path><path d="M50.937 170.535v0c-1.489-0.78-2.39-1.898-2.706-3.354-0.312-1.462 0.051-3.181 1.087-5.158v0c1.036-1.977 2.243-3.25 3.619-3.819 1.379-0.575 2.813-0.472 4.303 0.309v0c1.477 0.774 2.371 1.892 2.682 3.353 0.303 1.464-0.061 3.179-1.091 5.144v0c-1.03 1.965-2.234 3.24-3.61 3.824-1.379 0.575-2.807 0.475-4.284-0.299zM51.405 169.642v0c0.554 0.29 1.108 0.456 1.664 0.497 0.55 0.038 1.084-0.047 1.602-0.254 0.518-0.207 1.01-0.537 1.476-0.991 0.463-0.448 0.875-1.018 1.237-1.708v0l0.768-1.465c0.362-0.691 0.596-1.354 0.701-1.99 0.105-0.636 0.096-1.225-0.029-1.769-0.128-0.538-0.362-1.025-0.702-1.461-0.35-0.434-0.801-0.796-1.355-1.086v0c-0.554-0.29-1.111-0.457-1.673-0.501-0.559-0.035-1.096 0.048-1.611 0.248-0.518 0.207-1.009 0.534-1.472 0.982-0.463 0.448-0.875 1.018-1.237 1.709v0l-0.768 1.465c-0.362 0.691-0.596 1.354-0.701 1.989-0.109 0.641-0.1 1.234 0.024 1.778 0.125 0.544 0.362 1.032 0.712 1.466 0.355 0.437 0.81 0.8 1.364 1.091z" fill="#001f3f" data-fill-palette-color="primary"></path><path d="M64.087 175.484l-1.272-0.357 0.365-13.536 1.155 0.324-0.474 12.06 0.058 0.016 6.154-10.465 1.321 0.371-0.222 12.131 0.058 0.016 5.961-10.519 1.126 0.316-6.851 11.715-1.262-0.354 0.179-12.279-0.029-0.008z" fill="#001f3f" data-fill-palette-color="primary"></path><path d="M86.198 179.82l-6.88-0.729 1.384-13.058 1.124 0.119-1.28 12.065 5.757 0.61z" fill="#001f3f" data-fill-palette-color="primary"></path><path d="M98.333 179.511l-7.672 0.232-0.397-13.124 7.671-0.233 0.03 0.998-6.542 0.198 0.15 4.96 6.22-0.188 0.03 0.998-6.22 0.188 0.157 5.171 6.542-0.198z" fill="#001f3f" data-fill-palette-color="primary"></path><path d="M103.653 178.641l-2.503-12.89 4.099-0.796c1.657-0.322 3.044-0.036 4.162 0.856 1.113 0.9 1.879 2.426 2.297 4.577v0c0.418 2.152 0.279 3.853-0.417 5.105-0.703 1.246-1.883 2.03-3.539 2.352v0zM104.571 177.445l3.01-0.584c1.267-0.246 2.171-0.846 2.712-1.801 0.541-0.954 0.671-2.151 0.392-3.589v0l-0.331-1.703c-0.279-1.439-0.848-2.499-1.707-3.182-0.859-0.683-1.921-0.901-3.188-0.655v0l-3.01 0.584z" fill="#001f3f" data-fill-palette-color="primary"></path><path d="M126 171.964l-0.727-1.881-0.047 0.018c0.019 0.721-0.205 1.391-0.671 2.011-0.469 0.614-1.177 1.104-2.125 1.469v0c-0.759 0.293-1.495 0.422-2.207 0.388-0.71-0.028-1.383-0.23-2.017-0.604-0.635-0.375-1.22-0.909-1.755-1.604-0.541-0.692-1.013-1.558-1.415-2.599v0c-0.397-1.029-0.629-1.984-0.696-2.866-0.073-0.88 0.004-1.67 0.23-2.371 0.229-0.694 0.601-1.299 1.115-1.814 0.514-0.516 1.157-0.923 1.929-1.221v0c1.054-0.407 2.027-0.509 2.919-0.306 0.902 0.207 1.692 0.629 2.371 1.268v0l-0.659 0.838c-0.569-0.559-1.22-0.92-1.954-1.083-0.731-0.157-1.501-0.08-2.31 0.233v0c-0.596 0.23-1.095 0.542-1.498 0.936-0.394 0.397-0.684 0.859-0.871 1.385-0.184 0.532-0.256 1.119-0.217 1.759 0.039 0.641 0.198 1.325 0.479 2.053v0l0.574 1.486c0.569 1.474 1.366 2.482 2.39 3.024 1.024 0.542 2.153 0.574 3.389 0.096v0c0.47-0.182 0.888-0.415 1.253-0.701 0.368-0.279 0.663-0.606 0.887-0.98 0.219-0.366 0.347-0.772 0.383-1.218 0.039-0.44-0.038-0.911-0.232-1.413v0l-0.571-1.477-2.86 1.104-0.352-0.912 3.894-1.505 2.359 6.106z" fill="#001f3f" data-fill-palette-color="primary"></path><path d="M138.472 165.069l-6.627 3.87-6.621-11.34 6.627-3.869 0.504 0.862-5.652 3.3 2.501 4.285 5.374-3.138 0.503 0.863-5.373 3.137 2.609 4.468 5.652-3.3z" fill="#001f3f" data-fill-palette-color="primary"></path><path d="M147.547 157.772l-9.04-9.524 3.723-3.534c0.746-0.708 1.53-1.049 2.352-1.023 0.827 0.022 1.597 0.408 2.31 1.159v0c0.315 0.332 0.544 0.661 0.687 0.988 0.149 0.323 0.233 0.631 0.255 0.927 0.016 0.291-0.017 0.573-0.101 0.846-0.083 0.264-0.191 0.497-0.325 0.698v0l0.049 0.051c0.242-0.174 0.522-0.315 0.838-0.42 0.321-0.101 0.655-0.14 1.002-0.117 0.351 0.019 0.713 0.116 1.084 0.292 0.371 0.176 0.735 0.452 1.091 0.828v0c0.37 0.39 0.654 0.802 0.852 1.235 0.198 0.433 0.303 0.871 0.316 1.313 0.017 0.447-0.058 0.876-0.226 1.286-0.172 0.414-0.442 0.795-0.808 1.141v0zM144.006 152.401l3.673 3.869 3.028-2.874c0.571-0.542 0.859-1.112 0.865-1.711-0.003-0.599-0.241-1.148-0.714-1.645v0l-0.479-0.505c-0.467-0.493-0.998-0.754-1.591-0.784-0.599-0.025-1.183 0.233-1.754 0.775v0zM140.014 148.195l3.318 3.496 2.824-2.68c0.517-0.491 0.78-1.005 0.789-1.542 0.009-0.537-0.194-1.025-0.611-1.464v0l-0.493-0.519c-0.412-0.434-0.886-0.66-1.423-0.679-0.537-0.019-1.064 0.217-1.581 0.708v0z" fill="#001f3f" data-fill-palette-color="primary"></path><path d="M162.859 139.937l-0.701 0.949-4.136-1.276-3.321 4.492 2.432 3.58-0.671 0.908-7.794-11.545 0.863-1.167zM157.056 139.271l-7.083-2.176-0.048 0.065 4.157 6.133z" fill="#001f3f" data-fill-palette-color="primary"></path><path d="M166.944 133.004v0c-0.506 0.957-1.105 1.659-1.798 2.107-0.699 0.444-1.469 0.737-2.311 0.877v0l-0.22-1.074c0.764-0.121 1.431-0.362 2.002-0.722 0.576-0.357 1.066-0.916 1.467-1.677v0c0.474-0.898 0.626-1.703 0.456-2.417-0.174-0.708-0.644-1.264-1.41-1.669v0c-0.707-0.374-1.336-0.444-1.886-0.209-0.55 0.234-1.098 0.682-1.645 1.343v0l-0.761 0.922c-0.81 0.986-1.606 1.592-2.386 1.818-0.787 0.223-1.585 0.121-2.394-0.306v0c-0.511-0.27-0.91-0.595-1.196-0.975-0.295-0.377-0.481-0.794-0.558-1.253-0.083-0.462-0.07-0.961 0.038-1.497 0.111-0.527 0.314-1.07 0.61-1.628v0c0.455-0.862 0.996-1.511 1.622-1.949 0.623-0.431 1.321-0.694 2.093-0.787v0l0.157 1.041c-0.633 0.076-1.202 0.289-1.706 0.638-0.507 0.356-0.945 0.881-1.312 1.577v0c-0.44 0.832-0.609 1.583-0.506 2.253 0.108 0.673 0.522 1.2 1.241 1.58v0c0.69 0.364 1.309 0.414 1.86 0.15 0.547-0.258 1.082-0.71 1.605-1.353v0l0.76-0.922c0.865-1.018 1.688-1.618 2.468-1.798 0.777-0.19 1.567-0.073 2.369 0.351v0c1.064 0.562 1.711 1.338 1.942 2.326 0.224 0.986 0.024 2.07-0.601 3.253z" fill="#001f3f" data-fill-palette-color="primary"></path><path d="M173.21 117.156l-2.591 7.224-12.36-4.432 2.591-7.225 0.939 0.337-2.209 6.161 4.67 1.675 2.101-5.857 0.94 0.337-2.101 5.857 4.87 1.747 2.21-6.161z" fill="#001f3f" data-fill-palette-color="primary"></path><path d="M6.294 92.886c0-1.167 0.946-2.114 2.113-2.114 1.167 0 2.114 0.946 2.114 2.114 0 1.167-0.946 2.114-2.114 2.114-1.167 0-2.114-0.946-2.113-2.114z" fill="#001f3f" data-fill-palette-color="primary"></path><path d="M169.51 92.886c0-1.167 0.946-2.114 2.114-2.114 1.167 0 2.114 0.946 2.114 2.114 0 1.167-0.946 2.114-2.114 2.114-1.167 0-2.114-0.946-2.114-2.114z" fill="#001f3f" data-fill-palette-color="primary"></path></g></svg></g></svg></g></svg></g><g></g></svg></g></svg></g></svg></g><defs></defs></svg><rect width="448" height="360" fill="none" stroke="none" visibility="hidden"></rect></g></svg></g></svg>