<svg xmlns="http://www.w3.org/2000/svg" version="1.1" xmlns:xlink="http://www.w3.org/1999/xlink" xmlns:svgjs="http://svgjs.dev/svgjs" width="1000" height="1000" viewBox="0 0 1000 1000"><rect width="1000" height="1000" fill="#ffffff"></rect><g transform="matrix(0.7,0,0,0.7,149.6500015258789,149.6502286128445)"><svg viewBox="0 0 280 280" data-background-color="#ffffff" preserveAspectRatio="xMidYMid meet" height="1000" width="1000" xmlns="http://www.w3.org/2000/svg" xmlns:xlink="http://www.w3.org/1999/xlink"><g id="tight-bounds" transform="matrix(1,0,0,1,0.1399993896484375,0.13999867170031166)"><svg viewBox="0 0 279.72 279.72" height="279.72" width="279.72"><g><svg viewBox="0 0 279.72 279.72" height="279.72" width="279.72"><g><svg viewBox="0 0 279.72 279.72" height="279.72" width="279.72"><g id="textblocktransform"><svg viewBox="0 0 279.72 279.72" height="279.72" width="279.72" id="textblock"><g><svg viewBox="0 0 279.72 279.72" height="279.72" width="279.72"><g transform="matrix(1,0,0,1,57.446704652707865,57.446704652707865)"><svg viewBox="0 0 164.8265906945843 164.8265906945843" height="164.8265906945843" width="164.8265906945843"><g><circle r="82" cx="82.41329534729215" cy="82.41329534729215" fill="#0074d9" data-fill-palette-color="accent"></circle><svg xmlns="http://www.w3.org/2000/svg" xmlns:xlink="http://www.w3.org/1999/xlink" version="1.1" x="24.723988604187646" y="24.72398860418764" viewBox="0 0 100 100" enable-background="new 0 0 100 100" xml:space="preserve" height="115.378613486209" width="115.378613486209" class="icon-o-0" data-fill-palette-color="quaternary" id="o-0"></svg></g></svg></g><g><path d="M31.931 102.299v0c-1.158 3.299-3.206 5.448-6.144 6.447-2.931 1.002-6.661 0.707-11.191-0.883v0c-4.498-1.579-7.612-3.688-9.343-6.326-1.725-2.636-2.009-5.604-0.851-8.903v0c0.751-2.138 1.891-3.761 3.42-4.87 1.527-1.103 3.312-1.752 5.355-1.947v0l0.449 2.253c-1.651 0.076-3.113 0.557-4.386 1.442-1.264 0.881-2.192 2.163-2.782 3.844v0c-0.873 2.487-0.664 4.744 0.626 6.771 1.286 2.019 3.582 3.609 6.887 4.77v0l3.016 1.059c3.28 1.151 6.027 1.332 8.243 0.542 2.224-0.794 3.773-2.434 4.645-4.921v0c0.626-1.783 0.695-3.429 0.207-4.94-0.48-1.515-1.379-2.832-2.697-3.95v0l1.759-1.478c1.551 1.428 2.595 3.092 3.133 4.991 0.529 1.903 0.414 3.936-0.346 6.099z" fill="#001f3f" data-fill-palette-color="primary"></path><path d="M49.93 69.141l-8.311 12.324-23.387-15.771 1.353-2.007 21.615 14.576 6.958-10.318z" fill="#001f3f" data-fill-palette-color="primary"></path><path d="M66.165 54.745v0c-2.726 2.367-5.672 3.292-8.838 2.774-3.162-0.513-6.317-2.582-9.464-6.206v0c-3.143-3.619-4.75-7.033-4.82-10.24-0.065-3.203 1.265-5.987 3.991-8.355v0c2.706-2.35 5.641-3.261 8.806-2.733 3.175 0.528 6.325 2.592 9.452 6.191v0c3.13 3.604 4.732 7.012 4.806 10.225 0.084 3.213-1.227 5.995-3.933 8.344zM64.737 53.101v0c1.015-0.882 1.78-1.857 2.293-2.927 0.514-1.079 0.766-2.219 0.756-3.421-0.011-1.202-0.286-2.441-0.825-3.718-0.544-1.282-1.362-2.553-2.456-3.812v0l-2.334-2.688c-1.093-1.259-2.237-2.247-3.43-2.965-1.189-0.713-2.373-1.154-3.553-1.322-1.184-0.174-2.348-0.084-3.493 0.269-1.14 0.349-2.217 0.964-3.233 1.846v0c-1.02 0.886-1.788 1.873-2.303 2.962-0.515 1.089-0.772 2.233-0.77 3.434 0.002 1.192 0.273 2.426 0.811 3.703 0.544 1.282 1.362 2.553 2.456 3.811v0l2.334 2.688c1.093 1.259 2.237 2.247 3.43 2.965 1.189 0.713 2.378 1.159 3.566 1.338 1.193 0.175 2.363 0.08 3.509-0.282 1.141-0.368 2.222-0.995 3.242-1.881z" fill="#001f3f" data-fill-palette-color="primary"></path><path d="M74.93 14.631l2.204-1 7.196 15.861c0.644 1.42 1.314 2.604 2.01 3.551 0.693 0.941 1.449 1.631 2.269 2.071 0.826 0.437 1.744 0.63 2.754 0.578 1.007-0.058 2.135-0.371 3.384-0.937v0c1.255-0.569 2.23-1.211 2.925-1.925 0.692-0.72 1.152-1.538 1.379-2.453 0.221-0.912 0.206-1.939-0.046-3.08-0.255-1.147-0.704-2.431-1.349-3.851v0l-7.196-15.861 2.204-1 6.98 15.383c0.856 1.886 1.431 3.577 1.726 5.075 0.293 1.491 0.289 2.833-0.012 4.026-0.304 1.186-0.933 2.247-1.889 3.182-0.95 0.933-2.248 1.773-3.895 2.521v0c-1.641 0.744-3.119 1.164-4.435 1.259-1.322 0.098-2.522-0.133-3.603-0.691-1.083-0.564-2.077-1.453-2.982-2.668-0.908-1.22-1.789-2.773-2.645-4.658v0z" fill="#001f3f" data-fill-palette-color="primary"></path><path d="M119.09 29.247l-3.593-27.978 8.893-1.142c3.608-0.463 6.544 0.339 8.809 2.407 2.259 2.076 3.689 5.451 4.29 10.126v0c0.601 4.681 0.07 8.308-1.592 10.88-1.668 2.58-4.306 4.102-7.915 4.565v0zM121.218 26.818l6.532-0.839c2.754-0.354 4.78-1.519 6.079-3.495 1.293-1.969 1.738-4.517 1.337-7.645v0l-0.474-3.691c-0.402-3.128-1.477-5.481-3.225-7.059-1.756-1.584-4.011-2.2-6.765-1.846v0l-6.532 0.838z" fill="#001f3f" data-fill-palette-color="primary"></path><path d="M153.186 28.081l4.529-27.841 10.889 1.771c2.177 0.354 3.785 1.249 4.826 2.685 1.034 1.435 1.371 3.258 1.011 5.467v0c-0.155 0.956-0.418 1.775-0.788 2.457-0.369 0.676-0.791 1.22-1.267 1.633-0.476 0.413-0.996 0.723-1.561 0.932-0.572 0.207-1.118 0.322-1.64 0.346v0l-0.026 0.159c0.624 0.183 1.233 0.48 1.827 0.89 0.587 0.409 1.089 0.93 1.503 1.563 0.416 0.626 0.717 1.37 0.904 2.231 0.187 0.861 0.191 1.84 0.013 2.935v0c-0.186 1.141-0.522 2.163-1.009 3.064-0.487 0.902-1.101 1.657-1.84 2.266-0.738 0.602-1.573 1.025-2.505 1.268-0.925 0.245-1.919 0.281-2.981 0.108v0zM157.762 15.022l-1.844 11.338 8.86 1.441c1.672 0.272 3.025 0.019 4.057-0.761 1.025-0.773 1.656-1.89 1.894-3.35v0l0.241-1.483c0.233-1.433-0.014-2.679-0.741-3.737-0.733-1.066-1.935-1.735-3.607-2.007v0zM159.76 2.738l-1.661 10.213 8.262 1.344c1.513 0.246 2.734 0.029 3.662-0.651 0.935-0.679 1.506-1.659 1.714-2.939v0l0.246-1.513c0.207-1.274-0.024-2.385-0.694-3.332-0.665-0.939-1.754-1.532-3.267-1.778v0z" fill="#001f3f" data-fill-palette-color="primary"></path><path d="M186.263 37.027v0c-0.624-0.25-1.017-0.588-1.18-1.015-0.162-0.427-0.143-0.89 0.057-1.39v0l0.165-0.412c0.2-0.499 0.507-0.851 0.921-1.054 0.412-0.197 0.93-0.171 1.554 0.079v0c0.599 0.24 0.986 0.576 1.161 1.007 0.172 0.438 0.158 0.907-0.041 1.407v0l-0.165 0.412c-0.2 0.499-0.512 0.845-0.936 1.037-0.425 0.192-0.936 0.168-1.536-0.071z" fill="#001f3f" data-fill-palette-color="primary"></path><path d="M203.596 46.328l-1.993-1.372 15.997-23.234 9.12 6.28c2.016 1.388 3.158 3.031 3.426 4.93 0.259 1.901-0.298 3.848-1.671 5.841v0c-1.392 2.021-3.019 3.247-4.883 3.678-1.873 0.433-3.818-0.045-5.834-1.433v0l-7.127-4.907zM218.381 24.856l-6.532 9.486 7.127 4.907c1.329 0.915 2.598 1.242 3.807 0.98 1.214-0.258 2.22-0.965 3.016-2.122v0l1.099-1.595c0.778-1.13 1.072-2.31 0.883-3.543-0.187-1.222-0.945-2.291-2.273-3.206v0z" fill="#001f3f" data-fill-palette-color="primary"></path><path d="M247.504 47.039l1.543 1.865-13.421 11.101c-1.202 0.994-2.169 1.951-2.9 2.87-0.726 0.915-1.195 1.826-1.405 2.733-0.206 0.912-0.151 1.848 0.164 2.809 0.32 0.957 0.917 1.964 1.792 3.02v0c0.878 1.062 1.753 1.835 2.624 2.319 0.876 0.479 1.786 0.709 2.729 0.687 0.938-0.026 1.925-0.31 2.96-0.851 1.04-0.546 2.161-1.316 3.363-2.311v0l13.421-11.101 1.543 1.865-13.017 10.767c-1.596 1.32-3.077 2.319-4.445 2.996-1.363 0.673-2.659 1.021-3.888 1.043-1.224 0.018-2.413-0.312-3.567-0.989-1.149-0.672-2.3-1.705-3.453-3.099v0c-1.148-1.388-1.941-2.705-2.377-3.949-0.44-1.25-0.533-2.469-0.277-3.658 0.261-1.193 0.858-2.385 1.792-3.577 0.939-1.196 2.207-2.453 3.803-3.773v0z" fill="#001f3f" data-fill-palette-color="primary"></path><path d="M245.016 93.524l26.003-10.932 4.276 10.17c0.855 2.033 0.949 3.871 0.283 5.515-0.668 1.637-2.034 2.89-4.098 3.758v0c-0.892 0.375-1.726 0.587-2.5 0.636-0.768 0.046-1.454-0.023-2.057-0.208-0.603-0.184-1.142-0.461-1.617-0.829-0.479-0.375-0.866-0.777-1.164-1.207v0l-0.149 0.063c0.176 0.626 0.247 1.3 0.215 2.021-0.035 0.715-0.211 1.416-0.527 2.103-0.31 0.685-0.781 1.335-1.412 1.95-0.631 0.615-1.458 1.138-2.48 1.568v0c-1.066 0.448-2.11 0.705-3.133 0.77-1.023 0.065-1.988-0.054-2.897-0.357-0.902-0.306-1.703-0.79-2.404-1.451-0.698-0.655-1.256-1.478-1.673-2.47v0zM258.514 90.475l-10.589 4.452 3.478 8.274c0.657 1.562 1.589 2.574 2.797 3.036 1.199 0.459 2.481 0.401 3.844-0.172v0l1.386-0.583c1.339-0.563 2.264-1.433 2.775-2.611 0.515-1.187 0.444-2.561-0.213-4.122v0zM269.986 85.652l-9.539 4.01 3.244 7.716c0.594 1.413 1.426 2.333 2.495 2.759 1.071 0.432 2.205 0.397 3.401-0.107v0l1.413-0.594c1.19-0.5 2.009-1.286 2.456-2.356 0.443-1.062 0.368-2.299-0.226-3.712v0z" fill="#001f3f" data-fill-palette-color="primary"></path><path d="M16.208 197.831l17.212-5.83-0.039-0.115-14.096-2.668 9.573-10.685-0.039-0.115-17.212 5.831-0.544-1.605 19.343-6.552 0.77 2.273-8.815 9.812 0.029 0.085 12.963 2.435 0.741 2.187-19.343 6.552z" fill="#001f3f" data-fill-palette-color="primary"></path><path d="M24.423 213.433l-0.876-1.52 7.174-4.134 6.996-12.18 0.997 1.731-5.971 10.261 0.04 0.07 11.873-0.021 0.997 1.73-13.977-0.116z" fill="#001f3f" data-fill-palette-color="primary"></path><path d="M46.226 241.631l2.981-12.349-4.926 0.018-5.079 4.638-1.184-1.296 15.081-13.77 1.184 1.296-8.49 7.752 0.04 0.045 4.996-0.123 10.24-0.242 1.442 1.579-11.608 0.18-3.215 13.874z" fill="#001f3f" data-fill-palette-color="primary"></path><path d="M62.949 255.462l2.778-20.795-0.071-0.057-11.195 14.123-1.328-1.052 12.686-16.004 1.723 1.366-2.786 20.788 0.071 0.057 11.195-14.123 1.328 1.052-12.686 16.004z" fill="#001f3f" data-fill-palette-color="primary"></path><path d="M79.222 265.281v0c-2.31-1.211-3.708-2.954-4.193-5.228-0.483-2.265 0.081-4.933 1.692-8.006v0c1.614-3.079 3.49-5.063 5.627-5.954 2.146-0.894 4.375-0.735 6.685 0.476v0c2.298 1.205 3.689 2.947 4.171 5.227 0.476 2.277-0.088 4.945-1.692 8.006v0c-1.602 3.055-3.474 5.034-5.618 5.937-2.15 0.9-4.373 0.747-6.672-0.458zM79.958 263.879v0c0.869 0.456 1.732 0.714 2.588 0.776 0.859 0.071 1.693-0.058 2.502-0.385 0.809-0.327 1.572-0.842 2.289-1.544 0.723-0.699 1.366-1.584 1.928-2.656v0l1.194-2.277c0.562-1.072 0.925-2.104 1.088-3.096 0.169-0.989 0.155-1.904-0.042-2.744-0.194-0.846-0.561-1.608-1.102-2.286-0.534-0.675-1.236-1.24-2.105-1.696v0c-0.863-0.453-1.731-0.71-2.602-0.771-0.865-0.059-1.704 0.071-2.515 0.389-0.803 0.315-1.563 0.824-2.281 1.526-0.723 0.699-1.366 1.584-1.927 2.656v0l-1.194 2.277c-0.562 1.072-0.925 2.104-1.089 3.096-0.169 0.989-0.159 1.91 0.033 2.762 0.197 0.855 0.569 1.615 1.115 2.281 0.549 0.675 1.256 1.239 2.12 1.692z" fill="#001f3f" data-fill-palette-color="primary"></path><path d="M99.678 272.973l-1.971-0.554 0.569-21.052 1.796 0.505-0.73 18.754 0.078 0.022 9.585-16.268 2.059 0.578-0.343 18.863 0.078 0.022 9.275-16.355 1.748 0.49-10.648 18.223-1.971-0.554 0.283-19.1-0.049-0.014z" fill="#001f3f" data-fill-palette-color="primary"></path><path d="M134.084 279.72l-10.711-1.135 2.153-20.309 1.745 0.185-1.989 18.764 8.966 0.951z" fill="#001f3f" data-fill-palette-color="primary"></path><path d="M152.954 279.24l-11.936 0.361-0.618-20.412 11.935-0.362 0.047 1.552-10.181 0.309 0.234 7.721 9.687-0.293 0.047 1.542-9.687 0.294 0.243 8.044 10.182-0.309z" fill="#001f3f" data-fill-palette-color="primary"></path><path d="M161.228 277.887l-3.893-20.048 6.376-1.238c2.587-0.502 4.745-0.058 6.474 1.332 1.73 1.397 2.921 3.772 3.571 7.125v0c0.65 3.346 0.434 5.991-0.648 7.933-1.083 1.936-2.918 3.155-5.505 3.658v0zM162.654 276.028l4.683-0.909c1.973-0.383 3.381-1.317 4.223-2.803 0.848-1.487 1.055-3.349 0.62-5.586v0l-0.513-2.643c-0.434-2.237-1.323-3.887-2.666-4.948-1.336-1.062-2.991-1.402-4.965-1.019v0l-4.682 0.91z" fill="#001f3f" data-fill-palette-color="primary"></path><path d="M196 267.501l-1.127-2.917-0.075 0.029c0.027 1.114-0.322 2.153-1.045 3.117-0.726 0.958-1.825 1.721-3.299 2.291v0c-1.185 0.458-2.333 0.66-3.442 0.605-1.103-0.057-2.148-0.374-3.135-0.951-0.989-0.584-1.901-1.414-2.735-2.49-0.834-1.076-1.563-2.423-2.188-4.041v0c-0.62-1.606-0.986-3.093-1.097-4.463-0.109-1.363 0.013-2.589 0.364-3.676 0.351-1.087 0.926-2.034 1.725-2.84 0.801-0.8 1.801-1.431 2.999-1.893v0c1.643-0.635 3.164-0.793 4.562-0.476 1.398 0.318 2.621 0.973 3.668 1.967v0l-1.027 1.316c-0.88-0.878-1.889-1.44-3.029-1.684-1.142-0.251-2.343-0.133-3.604 0.354v0c-0.922 0.356-1.693 0.841-2.313 1.456-0.62 0.614-1.074 1.334-1.361 2.158-0.293 0.827-0.409 1.74-0.347 2.74 0.062 1 0.311 2.064 0.746 3.192v0l0.894 2.315c0.887 2.295 2.127 3.863 3.72 4.704 1.584 0.837 3.343 0.882 5.274 0.136v0c0.728-0.281 1.378-0.64 1.952-1.078 0.571-0.444 1.027-0.952 1.368-1.524 0.348-0.574 0.551-1.204 0.611-1.89 0.057-0.692-0.066-1.43-0.369-2.214v0l-0.887-2.295-4.45 1.718-0.548-1.42 6.058-2.34 3.67 9.501z" fill="#001f3f" data-fill-palette-color="primary"></path><path d="M215.394 256.777l-10.312 6.021-10.297-17.636 10.311-6.021 0.783 1.341-8.796 5.136 3.895 6.671 8.37-4.887 0.778 1.333-8.37 4.887 4.058 6.95 8.797-5.136z" fill="#001f3f" data-fill-palette-color="primary"></path><path d="M229.509 245.428l-14.06-14.811 5.792-5.499c1.161-1.102 2.382-1.636 3.666-1.603 1.283 0.033 2.483 0.638 3.598 1.813v0c0.481 0.507 0.834 1.016 1.059 1.526 0.234 0.51 0.364 0.994 0.39 1.451 0.031 0.453-0.018 0.889-0.148 1.308-0.125 0.415-0.296 0.782-0.514 1.1v0l0.077 0.08c0.383-0.28 0.822-0.502 1.315-0.665 0.494-0.154 1.011-0.214 1.553-0.18 0.551 0.033 1.113 0.186 1.686 0.457 0.583 0.272 1.147 0.696 1.693 1.271v0c0.579 0.61 1.023 1.254 1.334 1.933 0.306 0.674 0.471 1.356 0.496 2.045 0.02 0.695-0.102 1.362-0.366 2.003-0.264 0.64-0.679 1.228-1.244 1.765v0zM223.991 237.067l5.721 6.026 4.711-4.471c0.892-0.847 1.341-1.737 1.346-2.669 0.005-0.932-0.36-1.786-1.096-2.561v0l-0.75-0.79c-0.722-0.761-1.551-1.165-2.487-1.213-0.931-0.043-1.843 0.359-2.735 1.206v0zM217.791 230.535l5.152 5.427 4.395-4.173c0.805-0.764 1.215-1.562 1.232-2.393 0.017-0.832-0.299-1.589-0.946-2.272v0l-0.764-0.804c-0.643-0.678-1.383-1.032-2.219-1.064-0.832-0.026-1.65 0.342-2.455 1.106v0z" fill="#001f3f" data-fill-palette-color="primary"></path><path d="M253.337 217.677l-1.098 1.484-6.433-1.985-5.163 6.982 3.784 5.57-1.043 1.411-12.122-17.956 1.337-1.808zM244.313 216.65l-11.036-3.394-0.072 0.097 6.48 9.557z" fill="#001f3f" data-fill-palette-color="primary"></path><path d="M259.693 206.903v0c-0.785 1.486-1.718 2.575-2.798 3.267-1.089 0.694-2.285 1.15-3.586 1.367v0l-0.351-1.668c1.183-0.196 2.222-0.571 3.116-1.125 0.888-0.557 1.646-1.431 2.274-2.62v0c0.738-1.397 0.972-2.646 0.703-3.746-0.264-1.098-0.993-1.962-2.188-2.594v0c-1.1-0.581-2.076-0.69-2.93-0.328-0.856 0.369-1.711 1.065-2.564 2.09v0l-1.187 1.426c-1.256 1.542-2.492 2.485-3.709 2.83-1.22 0.351-2.46 0.194-3.721-0.471v0c-0.797-0.421-1.42-0.925-1.869-1.513-0.447-0.594-0.733-1.247-0.858-1.959-0.128-0.722-0.108-1.494 0.061-2.318 0.172-0.829 0.486-1.675 0.941-2.537v0c0.71-1.343 1.552-2.354 2.527-3.033 0.978-0.67 2.066-1.075 3.267-1.216v0l0.23 1.615c-0.983 0.119-1.869 0.45-2.657 0.991-0.782 0.545-1.461 1.361-2.036 2.449v0c-0.682 1.29-0.943 2.46-0.783 3.511 0.169 1.047 0.812 1.866 1.93 2.457v0c1.07 0.565 2.032 0.644 2.886 0.236 0.854-0.408 1.691-1.114 2.511-2.118v0l1.187-1.426c1.341-1.588 2.618-2.521 3.83-2.801 1.21-0.289 2.435-0.104 3.678 0.553v0c1.653 0.873 2.658 2.078 3.018 3.613 0.359 1.536 0.052 3.225-0.922 5.068z" fill="#001f3f" data-fill-palette-color="primary"></path><path d="M269.432 182.249l-4.031 11.239-19.223-6.894 4.031-11.24 1.462 0.525-3.439 9.588 7.272 2.608 3.272-9.123 1.452 0.521-3.271 9.122 7.575 2.717 3.438-9.588z" fill="#001f3f" data-fill-palette-color="primary"></path><path d="M9.788 144.49c0-1.816 1.472-3.288 3.288-3.288 1.816 0 3.288 1.472 3.288 3.288 0 1.816-1.472 3.288-3.288 3.288-1.816 0-3.288-1.472-3.288-3.288z" fill="#001f3f" data-fill-palette-color="primary"></path><path d="M263.68 144.49c0-1.816 1.472-3.288 3.288-3.288 1.816 0 3.288 1.472 3.288 3.288 0 1.816-1.472 3.288-3.288 3.288-1.816 0-3.288-1.472-3.288-3.288z" fill="#001f3f" data-fill-palette-color="primary"></path></g></svg></g></svg></g></svg></g><g></g></svg></g><defs></defs><mask id="1011c731-8fe9-41a5-a544-bf1acb52a41f"><g id="SvgjsG1725"><svg viewBox="0 0 279.72 279.72" height="279.72" width="279.72"><g><svg viewBox="0 0 279.72 279.72" height="279.72" width="279.72"><g><svg viewBox="0 0 279.72 279.72" height="279.72" width="279.72"><g id="SvgjsG1724"><svg viewBox="0 0 279.72 279.72" height="279.72" width="279.72" id="SvgjsSvg1723"><g><svg viewBox="0 0 279.72 279.72" height="279.72" width="279.72"><g transform="matrix(1,0,0,1,57.446704652707865,57.446704652707865)"><svg viewBox="0 0 164.8265906945843 164.8265906945843" height="164.8265906945843" width="164.8265906945843"><g><svg xmlns="http://www.w3.org/2000/svg" xmlns:xlink="http://www.w3.org/1999/xlink" version="1.1" x="24.723988604187646" y="24.72398860418764" viewBox="0 0 100 100" enable-background="new 0 0 100 100" xml:space="preserve" height="115.378613486209" width="115.378613486209" class="icon-o-0" data-fill-palette-color="quaternary" id="SvgjsSvg1722"><g fill="white"><g fill="white"><path fill="white" d="M57.066 39.532c0.327-0.372 0.211-0.805-0.257-0.965l-6.35-2.139c-0.463-0.171-0.945 0.079-1.071 0.557l-0.319 1.21c-0.126 0.479 0.155 0.997 0.624 1.152l2.021 0.638c0.469 0.152 0.584 0.574 0.253 0.943l-1.462 1.628c-0.331 0.366-0.317 0.95 0.035 1.298l0.813 0.812c0.351 0.349 0.905 0.328 1.23-0.043L57.066 39.532z"></path><path fill="white" d="M35.111 49.171c0.238-0.434 0.761-0.554 1.163-0.266 0 0 0.449 0.32 0.852 0.605 0.401 0.286 0.535 0.876 0.298 1.309l-0.711 1.304c-0.237 0.435-0.794 0.626-1.234 0.429-0.443-0.2-1.582-1.154-1.347-1.586L35.111 49.171z"></path><path fill="white" d="M15.526 73.361c-0.457-0.19-0.638-0.701-0.402-1.136l0.979-1.804c0.235-0.434 0.763-0.562 1.17-0.285l0.864 0.587c0.407 0.279 0.548 0.862 0.312 1.297l-0.706 1.293c-0.236 0.434-0.784 0.642-1.218 0.461C16.092 73.595 15.526 73.361 15.526 73.361"></path><path fill="white" d="M34.51 55.192c0.476 0.136 0.781 0.643 0.679 1.125l-0.316 1.492c-0.103 0.484-0.577 0.832-1.058 0.775-0.479-0.057-1.82-0.62-1.725-1.105l0.378-1.943c0.096-0.486 0.562-0.771 1.037-0.633L34.51 55.192z"></path><path fill="white" d="M20.869 65.393c0.386-0.306 0.917-0.214 1.177 0.207l0.556 0.895c0.263 0.421 0.156 1.013-0.231 1.321l-1.112 0.877c-0.389 0.307-0.988 0.267-1.333-0.088l-0.73-0.75c-0.344-0.354-0.31-0.894 0.077-1.199L20.869 65.393z"></path><path fill="white" d="M43.558 42.912c-0.211-0.446-0.006-0.954 0.457-1.126l1.817-0.678c0.462-0.172 0.949 0.076 1.084 0.553l0.276 0.992c0.134 0.477-0.136 1.009-0.597 1.186l-1.364 0.518c-0.463 0.175-1.009-0.04-1.217-0.477C43.807 43.442 43.558 42.912 43.558 42.912"></path><path fill="white" d="M15.614 76.432c0.481 0.116 0.812 0.612 0.736 1.099l-0.232 1.504c-0.077 0.487-0.534 0.858-1.016 0.823-0.481-0.037-1.845-0.542-1.77-1.031l0.293-1.954c0.072-0.489 0.525-0.793 1.006-0.677L15.614 76.432z"></path><path fill="white" d="M32.104 64.286c-0.492 0.039-0.966-0.309-1.049-0.771-0.087-0.463 0.053-1.934 0.546-1.97l1.952-0.136c0.494-0.035 0.932 0.34 0.976 0.83 0 0 0.044 0.49 0.087 0.971 0.042 0.479-0.327 0.903-0.818 0.943L32.104 64.286z"></path><path fill="white" d="M14.473 86.349c-0.459 0.109-0.894-0.201-0.96-0.69l-0.269-1.961c-0.067-0.492 0.282-0.913 0.774-0.942l1.034-0.055c0.493-0.028 0.928 0.354 0.969 0.845l0.122 1.498C16.184 85.534 14.936 86.239 14.473 86.349"></path><path fill="white" d="M26.275 65.737c-0.467 0.164-1.006-0.075-1.197-0.531l-0.4-0.945c-0.193-0.455 0.031-0.962 0.499-1.126l1.78-0.628c0.465-0.164 0.951 0.092 1.08 0.568l0.268 1.006c0.128 0.476-0.147 1-0.615 1.161L26.275 65.737z"></path><path fill="white" d="M41.561 45.193c0.278 0.409 0.193 1.002-0.186 1.316l-1.107 0.919c-0.38 0.318-0.972 0.302-1.313-0.031-0.342-0.334-1.092-1.628-0.717-1.948l1.535-1.302c0.376-0.32 0.911-0.246 1.188 0.163L41.561 45.193z"></path><path fill="white" d="M28.693 91.086c0-4.475-0.002-8.79 0-13.105 0-1.961 0.627-2.578 2.619-2.578 3.917-0.001 7.836-0.001 11.757-0.001h1.308v-1.235c0-4.029-0.004-8.058 0.002-12.085 0.002-1.671 0.703-2.357 2.397-2.36 3.993-0.005 7.983-0.001 11.976-0.001h1.309v-1.237c0-4.027-0.006-8.056 0.003-12.083 0.003-1.673 0.702-2.362 2.396-2.363 4.898-0.004 17.131-0.003 22.03 0 1.587 0 2.484 0.699 2.498 1.934 0.017 1.234-0.897 1.976-2.453 1.977-4.354 0.003-16.039 0.002-20.561 0.002v1.184c0 4.028 0.003 8.056-0.002 12.084-0.002 1.738-0.689 2.413-2.455 2.414-4.353 0.004-8.704 0.002-13.229 0.002v1.184c0 4.027 0.003 8.056-0.001 12.084-0.001 1.738-0.688 2.413-2.452 2.414-4.354 0.004-8.706 0.002-13.231 0.002v1.184c0 4.027 0.006 8.055 0 12.083-0.003 1.739-0.688 2.415-2.452 2.417-4.86 0.002-9.724 0.001-14.588 0-1.652 0-2.572-0.719-2.553-1.987 0.019-1.229 0.917-1.924 2.508-1.924 3.953-0.003 7.911-0.002 11.866-0.002H28.693z"></path><path fill="white" d="M72.418 22.164c0 6.147 0 12.296 0 18.44 0 0.95-0.242 1.197-1.183 1.197-1.201 0.002-2.4 0.006-3.602 0-0.794-0.004-1.081-0.292-1.081-1.09-0.002-12.349-0.002-22.328 0-34.676 0-0.773 0.271-1.035 1.055-1.036 1.236 0 2.473 0 3.71 0 0.865 0.001 1.101 0.232 1.101 1.092C72.418 12.239 72.418 16.019 72.418 22.164"></path><path fill="white" d="M65.826 24.948c0 5.202 0 10.403 0 15.606 0 1.032-0.215 1.249-1.24 1.249-1.184 0-2.363 0.004-3.547-0.002-0.784-0.004-1.05-0.271-1.05-1.047 0-10.51 0-18.656 0-29.168 0-0.746 0.269-1.016 1.016-1.018 1.2-0.004 2.4-0.002 3.601-0.001 1.021 0 1.219 0.191 1.221 1.198C65.826 16.95 65.826 19.767 65.826 24.948"></path><path fill="white" d="M86.496 39.972c-0.187 0.181-0.377 0.512-0.648 0.602-1.322 0.443-2.663 0.831-4.004 1.215-0.575 0.165-0.903-0.092-1.114-0.8-0.896-2.983-1.788-5.968-2.68-8.952-1.696-5.674-3.391-11.349-5.085-17.023-0.238-0.807-0.079-1.109 0.701-1.346 1.194-0.361 2.392-0.722 3.589-1.075 0.724-0.214 1.074-0.013 1.296 0.728 2.589 8.658 5.178 17.318 7.768 25.977C86.367 39.468 86.41 39.644 86.496 39.972"></path></g></g></svg></g></svg></g><g></g></svg></g></svg></g></svg></g><g></g></svg></g><defs><mask></mask></defs></svg></g></mask><linearGradient x1="0" x2="1" y1="0.5" y2="0.5" id="ae883052-1f44-46c6-bc25-51299206b3e3"><stop stop-color="#fff72e" offset="0"></stop><stop stop-color="#deae29" offset="1"></stop></linearGradient><rect width="279.7200012207031" height="279.7200927734375" fill="url(#ae883052-1f44-46c6-bc25-51299206b3e3)" mask="url(#1011c731-8fe9-41a5-a544-bf1acb52a41f)" data-fill-palette-color="quaternary"></rect></svg><rect width="279.72" height="279.72" fill="none" stroke="none" visibility="hidden"></rect></g></svg></g></svg>