<svg xmlns="http://www.w3.org/2000/svg" width="34" height="34" fill="none"><g clip-path="url(#bxy_svg__a)"><rect width="34" height="34" fill="#FF7918" rx="8"></rect><path fill="#FF7918" d="M0 0h34v34H0z"></path><g filter="url(#bxy_svg__b)"><path fill="#fff" d="M17 4.25C9.043 4.25 4.25 9.043 4.25 17c0 3.636 1.002 6.611 2.849 8.77.257.301.394.685.394 1.081v2.001c0 .496.402.898.898.898H17c7.957 0 12.75-4.793 12.75-12.75S24.957 4.25 17 4.25"></path></g><g clip-path="url(#bxy_svg__c)"><path fill="#FF7918" d="M17.845 10.837a1.43 1.43 0 0 0 1.432-1.425c0-.788-.641-1.426-1.432-1.426s-1.432.638-1.432 1.426.64 1.425 1.432 1.425"></path><path fill="#161616" d="M23.387 10.768h-3.592a.35.35 0 0 0-.263.118 2.24 2.24 0 0 1-1.687.761 2.24 2.24 0 0 1-1.688-.76.35.35 0 0 0-.263-.12h-2.559c-.42 0-.658.003-.737.003-.105 0-.207.017-.308.036a2.16 2.16 0 0 0-1.76 2.22 44.5 44.5 0 0 1-.948 11.444.955.955 0 0 0 1.87.388 46.5 46.5 0 0 0 .99-11.803v-.023c0-.201.163-.364.365-.364h10.598a.95.95 0 0 0 .955-.932c.01-.516-.438-.969-.973-.969Z"></path><path fill="#161616" d="M23.483 23.371h-9.875a.95.95 0 0 0-.954.95c0 .525.427.95.954.95h9.875a.95.95 0 0 0 .954-.95.95.95 0 0 0-.954-.95m-1.701-1.398 1.522-5.858a.954.954 0 0 0-1.848-.476l-1.522 5.858a.955.955 0 0 0 1.848.476m-5.427-1.378-.875-4.436a.903.903 0 0 0-1.772.347l.874 4.435a.903.903 0 0 0 1.773-.346m2.753-1.054-.874-4.435a.903.903 0 0 0-1.773.346l.874 4.436a.903.903 0 0 0 1.773-.347"></path></g></g><defs><clipPath id="bxy_svg__a"><rect width="34" height="34" fill="#fff" rx="8"></rect></clipPath><clipPath id="bxy_svg__c"><path fill="#fff" d="M9.563 7.986h14.875v17.63H9.563z"></path></clipPath><filter id="bxy_svg__b" width="27.628" height="27.628" x="3.292" y="3.718" color-interpolation-filters="sRGB" filterUnits="userSpaceOnUse"><feFlood flood-opacity="0" result="BackgroundImageFix"></feFlood><feColorMatrix in="SourceAlpha" result="hardAlpha" values="0 0 0 0 0 0 0 0 0 0 0 0 0 0 0 0 0 0 127 0"></feColorMatrix><feOffset dx="0.106" dy="0.532"></feOffset><feGaussianBlur stdDeviation="0.532"></feGaussianBlur><feComposite in2="hardAlpha" operator="out"></feComposite><feColorMatrix values="0 0 0 0 0.717647 0 0 0 0 0.345098 0 0 0 0 0 0 0 0 0.6 0"></feColorMatrix><feBlend in2="BackgroundImageFix" mode="multiply" result="effect1_dropShadow_5288_55508"></feBlend><feBlend in="SourceGraphic" in2="effect1_dropShadow_5288_55508" result="shape"></feBlend></filter></defs></svg>